<svg version="1.1" id="Layer_1" xmlns="http://www.w3.org/2000/svg" xmlns:xlink="http://www.w3.org/1999/xlink" x="0px" y="0px"
	 width="100%" viewBox="0 0 184 192" enable-background="new 0 0 184 192" xml:space="preserve">
<path fill="#FDFDFD" opacity="1.000000" stroke="none" 
	d="
M104.000000,193.000000 
	C69.333336,193.000000 35.166672,193.000000 1.000005,193.000000 
	C1.000003,129.000000 1.000003,65.000015 1.000002,1.000013 
	C62.333324,1.000009 123.666649,1.000009 184.999969,1.000004 
	C184.999985,64.999985 184.999985,128.999969 185.000000,192.999969 
	C158.166672,193.000000 131.333328,193.000000 104.000000,193.000000 
M85.568039,91.930725 
	C85.890289,91.626854 86.212540,91.322983 86.534790,91.019119 
	C86.325790,90.837425 86.116791,90.655739 85.907791,90.474045 
	C85.605194,90.982697 85.302597,91.491348 84.403618,92.077904 
	C84.085175,92.485077 83.766731,92.892250 83.448280,93.299416 
	C83.965622,93.532845 84.482964,93.766266 84.999901,94.735733 
	C85.159027,96.049133 85.318153,97.362526 86.191307,99.142464 
	C86.281525,99.692581 86.371742,100.242691 85.863876,101.092361 
	C86.514809,101.732437 87.165741,102.372513 88.154182,103.273186 
	C88.154182,103.273186 88.121956,103.698372 88.035309,104.322632 
	C87.331604,107.824219 90.277817,107.845642 92.099113,108.907089 
	C92.099113,108.907089 92.234962,108.729309 92.127502,109.247879 
	C92.266312,109.550705 92.405121,109.853523 92.543930,110.156349 
	C92.697983,109.805382 92.852043,109.454414 93.732498,109.087624 
	C94.810005,108.387505 95.887512,107.687386 97.563477,107.078575 
	C97.943665,108.262817 98.323845,109.447060 98.764259,110.818909 
	C101.893677,107.162292 101.893677,107.162292 106.587631,111.930115 
	C105.633377,113.089241 104.679131,114.248360 102.946732,115.188583 
	C102.164543,115.474335 101.382362,115.760094 100.600182,116.045853 
	C101.228813,116.410347 101.857437,116.774849 102.332909,117.713074 
	C101.949371,118.147301 101.565834,118.581535 100.549789,119.006378 
	C99.957260,119.125061 99.364723,119.243744 98.772194,119.362427 
	C99.203743,119.915176 99.635284,120.467934 100.037895,121.623375 
	C99.714386,122.090721 99.390877,122.558075 98.299660,123.138092 
	C97.821167,125.357674 97.342667,127.577263 96.972214,130.465225 
	C96.884422,131.601395 96.796631,132.737579 96.007858,133.940750 
	C95.510307,134.255920 95.012756,134.571075 94.515205,134.886230 
	C95.254753,135.261856 95.994301,135.637466 96.910187,136.820297 
	C98.525543,141.116959 100.140892,145.413605 101.018501,150.059387 
	C100.028275,154.643066 100.657097,155.164322 107.252800,154.978455 
	C109.377754,157.238113 111.502701,159.497787 112.916901,161.891846 
	C112.615112,162.696213 112.313324,163.500595 112.011543,164.304962 
	C114.837410,164.385605 115.221825,170.161148 119.900658,167.687881 
	C121.661308,169.766571 123.421959,171.845245 124.653824,174.256912 
	C124.885292,175.009918 125.116768,175.762909 125.348228,176.515900 
	C125.899712,176.007568 126.451202,175.499237 127.681259,174.909698 
	C131.826660,170.946854 135.972061,166.983994 140.164246,162.976410 
	C139.005386,161.752228 138.335037,161.018860 137.638062,160.311722 
	C130.765533,153.339020 123.676201,146.564575 117.080589,139.339325 
	C111.872604,133.634171 112.301872,127.777733 117.492737,122.603615 
	C122.394257,117.717934 127.988564,117.685425 133.814545,122.583115 
	C135.462601,123.968582 137.041168,125.451485 138.537964,126.999573 
	C144.626205,133.296494 150.670303,139.636124 156.518295,145.738373 
	C161.385757,141.160583 165.454193,137.334274 170.659164,132.439072 
	C164.225311,126.514397 158.136490,120.907463 152.786331,115.002663 
	C151.918549,114.472710 151.050766,113.942757 149.636887,113.150497 
	C148.362823,111.790581 147.088745,110.430656 146.369232,108.755135 
	C146.824356,107.799255 147.279465,106.843376 148.116745,105.084831 
	C145.990555,106.073303 144.857666,106.599976 143.055191,106.950340 
	C138.693939,105.398468 134.332703,103.846596 129.928192,101.634346 
	C129.512436,101.267624 129.096695,100.900909 128.680939,100.534195 
	C128.492294,101.122520 128.303665,101.710854 127.513260,102.582413 
	C125.359444,102.773300 123.205627,102.964188 120.755959,102.518250 
	C118.871803,99.982140 113.998489,99.465530 116.136757,94.184258 
	C123.199379,97.124161 130.370468,98.235756 138.077255,96.073441 
	C138.718796,95.384079 139.360336,94.694717 140.309235,93.355064 
	C142.111511,92.258560 143.913788,91.162056 145.821136,90.785721 
	C145.894882,91.439133 145.968628,92.092537 145.983185,92.221458 
	C147.971420,91.334106 150.119843,90.486023 152.152267,89.417320 
	C153.049484,88.945549 153.826111,88.114357 154.457428,87.292625 
	C156.031845,85.243309 157.491577,83.105888 159.243988,81.413055 
	C159.593765,81.397682 159.943527,81.382309 160.293304,81.366936 
	C159.863632,81.243202 159.433945,81.119469 159.114151,80.318733 
	C162.107727,75.343636 166.657150,73.316521 172.047165,73.879318 
	C171.516541,70.954979 170.853592,68.510040 170.696930,66.033081 
	C170.583710,64.242950 171.143158,62.410286 171.402603,60.596596 
	C168.917175,60.405949 166.431732,60.215302 163.306213,59.800285 
	C162.244064,58.630814 161.181931,57.461346 160.984970,56.161121 
	C162.147568,55.027081 163.310181,53.893044 164.472778,52.759003 
	C164.015549,52.210522 163.558334,51.662037 163.101105,51.113556 
	C161.390060,52.107925 159.679001,53.102299 157.271271,54.135826 
	C156.623520,54.564747 155.886917,54.902824 155.341461,55.436337 
	C148.107803,62.511654 141.030426,69.752899 133.640549,76.660141 
	C128.949371,81.044945 124.015053,81.401001 119.626999,78.417137 
	C111.176857,72.671059 110.826088,65.241463 119.346809,58.139492 
	C123.876579,58.935066 128.044479,54.225525 128.071915,48.062138 
	C128.577072,47.644230 129.082230,47.226318 130.133560,47.091034 
	C130.818192,47.230938 131.502808,47.370842 132.187439,47.510746 
	C131.990799,46.615555 131.794159,45.720364 131.909958,44.214188 
	C134.600128,41.806374 137.290283,39.398560 140.271469,36.730263 
	C135.413696,32.184063 131.326920,28.359426 126.009102,23.382700 
	C119.202225,30.725567 112.121109,38.364273 104.356895,45.889503 
	C103.179443,45.003784 102.001984,44.118061 99.628487,42.332634 
	C100.296478,45.926487 100.697273,48.082813 101.042740,50.797989 
	C100.543060,51.578762 100.043373,52.359539 98.733452,53.053688 
	C96.974838,52.635494 95.216217,52.217300 92.214157,51.503422 
	C94.147179,54.632515 95.534653,56.878498 96.990707,59.969776 
	C96.772156,61.942238 96.553604,63.914700 95.715477,66.253174 
	C96.096382,67.504395 96.477280,68.755608 97.177185,70.672424 
	C97.501610,72.099609 97.826035,73.526802 97.400215,75.100174 
	C96.523048,77.344696 95.645882,79.589211 94.206482,83.272400 
	C97.364731,81.720665 99.105927,80.865173 101.334053,80.492653 
	C103.319603,82.848404 105.154831,85.355164 107.330048,87.520370 
	C109.852661,90.031395 112.673866,92.242455 114.527916,94.800751 
	C109.382614,94.820488 103.511597,98.033203 100.017700,90.938858 
	C98.867668,92.016670 98.059563,92.774033 97.185204,93.041908 
	C97.185204,93.041908 97.619225,92.806091 96.995750,92.246574 
	C96.729591,92.162117 96.463432,92.077660 96.003044,91.586258 
	C96.003044,91.586258 95.954910,91.137917 95.665627,90.587891 
	C94.779907,90.699112 93.894188,90.810333 92.533607,91.434669 
	C90.964180,93.214401 89.394753,94.994133 87.928986,96.024902 
	C88.491508,93.123405 86.622261,93.740303 84.999283,93.333527 
	C84.999519,92.889015 84.999763,92.444511 85.568039,91.930725 
M45.335140,103.095512 
	C45.229176,104.409897 45.123207,105.724281 44.772339,107.635551 
	C43.751385,108.417542 42.730431,109.199539 41.016018,109.970093 
	C39.961109,110.044945 38.906197,110.119797 37.665981,110.207794 
	C38.294334,111.124809 38.736656,111.770332 38.868526,112.983154 
	C31.955795,119.603683 25.043062,126.224213 18.684359,132.314133 
	C23.317921,137.348633 27.104921,141.463318 31.028898,145.726837 
	C32.087112,144.769760 32.975193,144.046997 33.771095,143.233994 
	C40.066467,136.803467 46.325111,130.336899 52.633698,123.919434 
	C57.470833,118.998802 63.997620,118.017303 68.808167,121.409592 
	C76.504990,126.837219 76.958038,134.031601 69.958984,141.216721 
	C62.800812,148.565155 55.567234,155.840149 48.736229,162.772278 
	C52.973072,167.166519 56.840214,171.177338 61.704445,176.222275 
	C67.437286,170.012222 73.076546,163.903534 78.920761,158.656158 
	C79.748825,160.130005 80.576881,161.603851 81.404945,163.077698 
	C82.021935,162.722092 82.638931,162.366486 83.255920,162.010895 
	C82.141762,160.228760 81.027596,158.446640 80.204987,156.002060 
	C82.074203,154.190689 83.943420,152.379318 86.020622,151.154114 
	C87.013947,151.435883 88.007278,151.717636 89.069519,152.568756 
	C89.374878,152.891602 89.680229,153.214462 89.985588,153.537308 
	C90.167618,153.327362 90.349648,153.117416 90.531677,152.907455 
	C90.020920,152.605164 89.510155,152.302887 88.974701,151.189850 
	C88.417702,150.364120 87.860703,149.538391 87.472748,147.984665 
	C93.852783,136.668900 92.342247,125.954018 84.326897,116.243263 
	C81.032082,112.251526 76.609833,109.190392 72.895096,104.876778 
	C73.737434,102.287338 74.579781,99.697906 75.840050,95.823700 
	C73.368942,96.929115 71.737259,97.490623 71.777763,97.666031 
	C72.446503,100.562302 70.899704,101.172249 68.535133,101.082176 
	C68.589737,102.040215 68.644348,102.998260 67.862190,103.886787 
	C63.577904,103.517914 59.293617,103.149048 55.000473,102.108688 
	C54.512569,101.382278 54.024666,100.655869 53.536766,99.929459 
	C53.267906,100.081207 52.999043,100.232964 52.730183,100.384712 
	C52.826237,101.325409 52.922291,102.266098 52.466118,103.629143 
	C50.337048,104.502701 48.207977,105.376251 46.048779,105.437111 
	C46.031960,104.624176 46.015141,103.811249 46.682919,102.987671 
	C47.293503,102.663956 47.904087,102.340248 48.514671,102.016541 
	C48.218483,101.735603 47.922291,101.454666 47.626099,101.173729 
	C47.084587,101.783051 46.543079,102.392372 45.335140,103.095512 
M82.972946,85.970947 
	C82.972946,85.970947 82.871208,85.906097 83.620903,86.041351 
	C84.954521,86.258873 86.288132,86.476395 88.890488,86.900856 
	C87.233803,84.543938 86.451759,83.431343 85.817848,81.627525 
	C87.133125,79.888367 88.448395,78.149216 89.827438,77.038109 
	C90.022148,77.319016 90.216866,77.599922 90.411583,77.880829 
	C90.226669,77.377647 90.041756,76.874458 89.182442,75.801506 
	C89.866455,71.537842 90.550468,67.274170 91.791313,62.913837 
	C91.567734,62.273975 91.344162,61.634117 90.870918,60.289909 
	C89.653633,57.287468 88.436340,54.285027 87.944382,50.991539 
	C88.680244,50.120571 89.626701,49.349689 90.099930,48.353912 
	C90.725227,47.038113 90.979744,45.546104 91.393639,44.129833 
	C90.054924,43.991375 88.714714,43.726677 87.377838,43.742577 
	C85.089722,43.769791 82.803696,43.972652 79.984184,43.801529 
	C73.460175,37.263847 66.936165,30.726168 59.756641,23.799931 
	C58.096951,23.505058 56.437263,23.210186 54.777573,22.915314 
	C55.190948,24.623056 55.604321,26.330799 55.782009,28.663418 
	C53.039005,31.040005 50.296005,33.416592 48.005241,35.401348 
	C50.677578,39.630882 52.171112,43.237057 54.726784,45.772701 
	C59.569851,50.577793 65.218117,54.562428 70.172638,59.266281 
	C76.676239,65.440849 75.737350,73.840645 68.351646,78.732750 
	C63.189262,82.152176 57.786320,81.053864 51.947067,75.290627 
	C45.574440,69.000969 39.186356,62.723701 32.961689,56.289452 
	C31.181395,54.449215 29.815792,54.256588 27.531387,55.660572 
	C25.610670,54.751732 23.689951,53.842892 21.769234,52.934052 
	C22.211079,55.632328 22.652925,58.330601 22.852278,61.624542 
	C21.949362,62.104439 21.046444,62.584335 19.527401,62.805843 
	C18.747839,62.920998 17.968279,63.036156 17.188719,63.151314 
	C17.682652,64.103325 18.176584,65.055344 18.841007,66.584785 
	C19.282217,67.245155 19.723427,67.905533 20.076378,69.436859 
	C20.666418,71.508667 21.256458,73.580467 21.846502,75.652275 
	C23.055258,75.034454 24.264015,74.416634 25.857113,73.841965 
	C26.115574,73.985992 26.224026,74.204475 26.080866,75.339371 
	C26.717552,82.236458 29.424026,84.652695 35.439590,83.379425 
	C35.676319,83.792435 35.913048,84.205444 36.069946,85.470154 
	C35.629574,89.360619 36.727726,91.210709 41.465466,89.346268 
	C45.417130,91.620857 49.121506,94.686646 53.369148,96.014252 
	C63.982441,99.331451 72.723145,94.691917 80.954292,88.778603 
	C84.717888,89.898872 82.249031,86.833847 82.972946,85.970947 
M170.614166,127.918556 
	C170.872971,126.436775 171.131775,124.954994 171.390579,123.473206 
	C170.593231,123.647804 169.795898,123.822395 168.458694,123.792473 
	C167.403397,124.140976 166.348099,124.489471 165.292801,124.837975 
	C165.263702,125.361450 165.234619,125.884918 165.205521,126.408394 
	C166.802460,126.935974 168.399399,127.463554 170.614166,127.918556 
M12.277326,64.878227 
	C12.401896,65.782127 12.526467,66.686028 12.651037,67.589928 
	C13.230276,67.287155 13.809514,66.984375 14.388752,66.681602 
	C13.833398,65.914268 13.278044,65.146942 12.277326,64.878227 
M83.638390,36.325451 
	C82.959595,36.054764 82.280792,35.784073 81.601990,35.513386 
	C81.532608,36.082184 81.463226,36.650982 81.393852,37.219780 
	C82.052467,37.118130 82.711090,37.016476 83.638390,36.325451 
M155.522232,109.312675 
	C154.977661,108.975143 154.433075,108.637619 153.888504,108.300095 
	C153.754257,108.573341 153.620010,108.846588 153.485779,109.119835 
	C154.019043,109.324211 154.552322,109.528595 155.522232,109.312675 
M145.564911,97.294289 
	C145.293259,97.009453 145.021606,96.724625 144.749969,96.439804 
	C144.632034,96.552597 144.405319,96.757202 144.411850,96.764923 
	C144.665390,97.065323 144.940216,97.347755 145.564911,97.294289 
M22.294704,78.434494 
	C22.010654,78.705589 21.726604,78.976677 21.442554,79.247772 
	C21.554928,79.365387 21.667299,79.482994 21.779673,79.600609 
	C22.063732,79.329185 22.347794,79.057755 22.294704,78.434494 
M107.705864,166.564255 
	C107.989639,166.293518 108.273407,166.022781 108.557175,165.752045 
	C108.444923,165.634598 108.241264,165.408859 108.233627,165.415314 
	C107.934341,165.667984 107.652908,165.941803 107.705864,166.564255 
M134.753922,100.972450 
	C135.188797,100.847710 135.623672,100.722977 136.058548,100.598236 
	C135.953964,100.376106 135.849380,100.153984 135.744797,99.931862 
	C135.240067,100.250854 134.735352,100.569855 134.753922,100.972450 
M101.701836,89.569214 
	C101.987099,89.296616 102.272369,89.024010 102.557625,88.751404 
	C102.444794,88.633362 102.331955,88.515320 102.219116,88.397270 
	C101.933929,88.670036 101.648743,88.942802 101.701836,89.569214 
M94.820290,61.967979 
	C94.725662,61.563732 94.631035,61.159485 94.536400,60.755241 
	C94.416237,60.843800 94.184563,60.947697 94.194290,61.018383 
	C94.250740,61.428722 94.363976,61.831249 94.820290,61.967979 
M135.606445,98.412613 
	C135.963120,98.321709 136.319778,98.230804 136.676453,98.139900 
	C136.354980,98.092453 136.033524,98.045006 135.606445,98.412613 
M151.245483,111.181381 
	C151.412598,111.126015 151.579727,111.070648 151.746841,111.015289 
	C151.578552,110.961220 151.410248,110.907143 151.245483,111.181381 
M108.244743,163.169083 
	C108.411385,163.113831 108.578026,163.058578 108.744667,163.003326 
	C108.577042,162.949432 108.409409,162.895523 108.244743,163.169083 
M95.371758,114.525108 
	C95.159943,114.470718 94.948120,114.416336 94.736305,114.361954 
	C94.872414,114.495590 95.008514,114.629234 95.371758,114.525108 
M94.410896,123.483292 
	C94.410896,123.483292 94.523727,123.415367 94.410896,123.483292 
M92.588120,122.518204 
	C92.588120,122.518204 92.477104,122.584999 92.588120,122.518204 
M138.589844,101.517235 
	C138.589844,101.517235 138.478531,101.583496 138.589844,101.517235 
M77.516777,37.410553 
	C77.516777,37.410553 77.584229,37.522926 77.516777,37.410553 
M68.482674,98.590431 
	C68.482674,98.590431 68.413963,98.477089 68.482674,98.590431 
M18.410492,70.482834 
	C18.410492,70.482834 18.521860,70.416489 18.410492,70.482834 
M16.517300,68.412621 
	C16.517300,68.412621 16.583368,68.523895 16.517300,68.412621 
z"/>
<path fill="#0A0E1F" opacity="1.000000" stroke="none" 
	d="
M125.182610,173.923920 
	C123.421959,171.845245 121.661308,169.766571 119.487183,167.252258 
	C117.258354,165.130249 115.443001,163.443848 113.627647,161.757446 
	C111.502701,159.497787 109.377754,157.238113 106.852570,154.537964 
	C104.886971,152.635086 103.321602,151.172668 101.756241,149.710266 
	C100.140892,145.413605 98.525543,141.116959 96.899872,136.153992 
	C96.829315,134.949692 96.769081,134.411728 96.708847,133.873749 
	C96.796631,132.737579 96.884422,131.601395 97.092163,129.827332 
	C97.830536,127.134758 98.448959,125.080093 99.067375,123.025429 
	C99.390877,122.558075 99.714386,122.090721 100.312988,121.164276 
	C100.786148,120.142044 100.984230,119.578903 101.182297,119.015762 
	C101.565834,118.581535 101.949371,118.147301 102.664185,117.299194 
	C103.238602,116.392700 103.481735,115.900093 103.724884,115.407478 
	C104.679131,114.248360 105.633377,113.089241 107.014740,111.482239 
	C111.978508,108.407936 116.515160,105.781509 121.051811,103.155083 
	C123.205627,102.964188 125.359444,102.773300 128.113586,102.581421 
	C129.133102,102.485199 129.552277,102.389969 129.971451,102.294739 
	C134.332703,103.846596 138.693939,105.398468 143.484970,107.322334 
	C144.548050,108.153130 145.181366,108.611931 145.814682,109.070740 
	C147.088745,110.430656 148.362823,111.790581 149.997040,113.546310 
	C150.920685,114.394913 151.484177,114.847717 152.047668,115.300522 
	C158.136490,120.907463 164.225311,126.514397 170.659164,132.439072 
	C165.454193,137.334274 161.385757,141.160583 156.518295,145.738373 
	C150.670303,139.636124 144.626205,133.296494 138.537964,126.999573 
	C137.041168,125.451485 135.462601,123.968582 133.814545,122.583115 
	C127.988564,117.685425 122.394257,117.717934 117.492737,122.603615 
	C112.301872,127.777733 111.872604,133.634171 117.080589,139.339325 
	C123.676201,146.564575 130.765533,153.339020 137.638062,160.311722 
	C138.335037,161.018860 139.005386,161.752228 140.164246,162.976410 
	C135.972061,166.983994 131.826660,170.946854 127.229530,174.683502 
	C126.246071,174.279510 125.714340,174.101715 125.182610,173.923920 
z"/>
<path fill="#0B0E1F" opacity="1.000000" stroke="none" 
	d="
M85.812645,150.567947 
	C83.943420,152.379318 82.074203,154.190689 79.874725,156.337387 
	C79.268250,157.046768 78.992027,157.420807 78.715805,157.794861 
	C73.076546,163.903534 67.437286,170.012222 61.704445,176.222275 
	C56.840214,171.177338 52.973072,167.166519 48.736229,162.772278 
	C55.567234,155.840149 62.800812,148.565155 69.958984,141.216721 
	C76.958038,134.031601 76.504990,126.837219 68.808167,121.409592 
	C63.997620,118.017303 57.470833,118.998802 52.633698,123.919434 
	C46.325111,130.336899 40.066467,136.803467 33.771095,143.233994 
	C32.975193,144.046997 32.087112,144.769760 31.028898,145.726837 
	C27.104921,141.463318 23.317921,137.348633 18.684359,132.314133 
	C25.043062,126.224213 31.955795,119.603683 39.312523,112.603477 
	C40.407505,111.476379 41.058491,110.728951 41.709476,109.981529 
	C42.730431,109.199539 43.751385,108.417542 45.136368,107.299789 
	C45.865959,106.865868 46.058800,106.627792 46.078907,106.249809 
	C48.207977,105.376251 50.337048,104.502701 53.091217,103.474007 
	C54.147320,103.139305 54.578327,102.959740 55.009331,102.780167 
	C59.293617,103.149048 63.577904,103.517914 68.508614,104.136612 
	C70.336830,104.826279 71.518623,105.266113 72.700417,105.705948 
	C76.609833,109.190392 81.032082,112.251526 84.326897,116.243263 
	C92.342247,125.954018 93.852783,136.668900 87.155968,148.447388 
	C86.497009,149.462723 86.154831,150.015335 85.812645,150.567947 
z"/>
<path fill="#090E1E" opacity="1.000000" stroke="none" 
	d="
M89.763672,76.410057 
	C88.448395,78.149216 87.133125,79.888367 85.485596,82.177353 
	C84.392624,83.786819 83.631920,84.846458 82.871208,85.906097 
	C82.871208,85.906097 82.972946,85.970947 82.672943,85.985611 
	C81.811180,86.693016 81.249413,87.385765 80.687653,88.078514 
	C72.723145,94.691917 63.982441,99.331451 53.369148,96.014252 
	C49.121506,94.686646 45.417130,91.620857 41.037884,88.899796 
	C39.123459,87.175041 37.636616,85.896751 36.149773,84.618454 
	C35.913048,84.205444 35.676319,83.792435 35.034363,83.025177 
	C31.813580,79.946419 28.998024,77.221909 26.182468,74.497398 
	C26.224026,74.204475 26.115574,73.985992 25.515450,73.513779 
	C23.504070,71.645699 21.834352,70.105797 20.164635,68.565903 
	C19.723427,67.905533 19.282217,67.245155 18.990612,66.046730 
	C19.474653,64.693863 19.809090,63.879047 20.143528,63.064232 
	C21.046444,62.584335 21.949362,62.104439 23.282301,61.225296 
	C25.173960,59.232876 26.635595,57.639702 28.097231,56.046528 
	C29.815792,54.256588 31.181395,54.449215 32.961689,56.289452 
	C39.186356,62.723701 45.574440,69.000969 51.947067,75.290627 
	C57.786320,81.053864 63.189262,82.152176 68.351646,78.732750 
	C75.737350,73.840645 76.676239,65.440849 70.172638,59.266281 
	C65.218117,54.562428 59.569851,50.577793 54.726784,45.772701 
	C52.171112,43.237057 50.677578,39.630882 48.005241,35.401348 
	C50.296005,33.416592 53.039005,31.040005 56.207184,28.238070 
	C57.892288,26.604641 59.152222,25.396563 60.412159,24.188484 
	C66.936165,30.726168 73.460175,37.263847 80.386612,44.269051 
	C82.932373,46.918575 85.075706,49.100582 87.219048,51.282589 
	C88.436340,54.285027 89.653633,57.287468 90.932404,60.979385 
	C91.074081,62.116074 91.154282,62.563290 91.234482,63.010502 
	C90.550468,67.274170 89.866455,71.537842 89.503845,76.113373 
	C89.825241,76.425240 89.763672,76.410057 89.763672,76.410057 
z"/>
<path fill="#0A0D1E" opacity="1.000000" stroke="none" 
	d="
M118.655396,57.837761 
	C110.826088,65.241463 111.176857,72.671059 119.626999,78.417137 
	C124.015053,81.401001 128.949371,81.044945 133.640549,76.660141 
	C141.030426,69.752899 148.107803,62.511654 155.341461,55.436337 
	C155.886917,54.902824 156.623520,54.564747 157.703979,54.370941 
	C158.797729,55.167995 159.458755,55.729939 160.119781,56.291878 
	C161.181931,57.461346 162.244064,58.630814 163.746674,60.228020 
	C165.880600,62.424900 167.574081,64.194038 170.057343,66.788246 
	C161.749100,74.733337 153.732590,82.399445 145.716064,90.065559 
	C143.913788,91.162056 142.111511,92.258560 139.852936,93.692490 
	C138.854996,94.509193 138.313354,94.988480 137.771713,95.467758 
	C130.370468,98.235756 123.199379,97.124161 115.748184,94.430061 
	C115.359612,94.675865 115.365456,94.583717 115.365456,94.583717 
	C112.673866,92.242455 109.852661,90.031395 107.330048,87.520370 
	C105.154831,85.355164 103.319603,82.848404 101.040405,79.928772 
	C99.881325,77.894592 99.015884,76.424286 98.150452,74.953987 
	C97.826035,73.526802 97.501610,72.099609 97.076950,69.990433 
	C96.762825,68.168015 96.548943,67.027588 96.335060,65.887161 
	C96.553604,63.914700 96.772156,61.942238 97.160225,59.308105 
	C98.067726,56.811062 98.805702,54.975689 99.543686,53.140312 
	C100.043373,52.359539 100.543060,51.578762 101.359604,50.363808 
	C102.797646,48.620750 103.918823,47.311867 105.040001,46.002983 
	C112.121109,38.364273 119.202225,30.725567 126.009102,23.382700 
	C131.326920,28.359426 135.413696,32.184063 140.271469,36.730263 
	C137.290283,39.398560 134.600128,41.806374 131.468979,44.599243 
	C130.547806,45.592335 130.067596,46.200375 129.587387,46.808411 
	C129.082230,47.226318 128.577072,47.644230 127.654510,48.442596 
	C124.376541,51.827957 121.515968,54.832859 118.655396,57.837761 
z"/>
<path fill="#F3F5F5" opacity="1.000000" stroke="none" 
	d="
M120.903885,102.836670 
	C116.515160,105.781509 111.978508,108.407936 107.158310,111.171616 
	C101.893677,107.162292 101.893677,107.162292 98.764259,110.818909 
	C98.323845,109.447060 97.943665,108.262817 97.372551,106.701477 
	C99.117249,104.302246 102.725677,102.140137 102.571106,100.292908 
	C102.371483,97.907387 99.163803,95.773582 97.251457,93.531387 
	C98.059563,92.774033 98.867668,92.016670 100.017700,90.938858 
	C103.511597,98.033203 109.382614,94.820488 114.946686,94.692230 
	C115.365456,94.583717 115.359612,94.675865 115.407379,94.674088 
	C113.998489,99.465530 118.871803,99.982140 120.903885,102.836670 
z"/>
<path fill="#25255F" opacity="1.000000" stroke="none" 
	d="
M97.218330,93.286652 
	C99.163803,95.773582 102.371483,97.907387 102.571106,100.292908 
	C102.725677,102.140137 99.117249,104.302246 97.073318,106.655823 
	C95.887512,107.687386 94.810005,108.387505 93.208725,108.935585 
	C92.684944,108.783546 92.234962,108.729309 92.234962,108.729309 
	C92.234962,108.729309 92.099113,108.907089 92.125114,108.486954 
	C90.808060,106.610672 89.465004,105.154526 88.121948,103.698372 
	C88.121956,103.698372 88.154182,103.273186 88.126007,102.867706 
	C87.552536,101.905762 87.007248,101.349281 86.461960,100.792809 
	C86.371742,100.242691 86.281525,99.692581 86.139938,98.990379 
	C86.667480,98.150146 87.246399,97.462006 87.825317,96.773865 
	C89.394753,94.994133 90.964180,93.214401 93.141487,91.193497 
	C94.484550,91.014191 95.219727,91.076050 95.954910,91.137909 
	C95.954910,91.137917 96.003044,91.586258 96.098434,92.080124 
	C96.668961,92.651352 97.144096,92.728722 97.619225,92.806091 
	C97.619225,92.806091 97.185204,93.041908 97.218330,93.286652 
z"/>
<path fill="#F3F5F5" opacity="1.000000" stroke="none" 
	d="
M145.768600,90.425644 
	C153.732590,82.399445 161.749100,74.733337 170.057343,66.788246 
	C167.574081,64.194038 165.880600,62.424900 164.066711,60.340206 
	C166.431732,60.215302 168.917175,60.405949 171.402588,60.596596 
	C171.143158,62.410286 170.583710,64.242950 170.696930,66.033081 
	C170.853592,68.510040 171.516541,70.954979 172.047165,73.879318 
	C166.657150,73.316521 162.107727,75.343636 159.057068,80.659348 
	C159.000000,80.999962 158.997330,81.003830 158.997345,81.003830 
	C157.491577,83.105888 156.031845,85.243309 154.457428,87.292625 
	C153.826111,88.114357 153.049484,88.945549 152.152267,89.417320 
	C150.119843,90.486023 147.971420,91.334106 145.983185,92.221458 
	C145.968628,92.092537 145.894882,91.439133 145.768600,90.425644 
z"/>
<path fill="#F3F5F5" opacity="1.000000" stroke="none" 
	d="
M87.581711,51.137062 
	C85.075706,49.100582 82.932373,46.918575 80.652916,44.419159 
	C82.803696,43.972652 85.089722,43.769791 87.377838,43.742577 
	C88.714714,43.726677 90.054924,43.991375 91.393639,44.129833 
	C90.979744,45.546104 90.725227,47.038113 90.099930,48.353912 
	C89.626701,49.349689 88.680244,50.120571 87.581711,51.137062 
z"/>
<path fill="#F3F5F5" opacity="1.000000" stroke="none" 
	d="
M26.131666,74.918381 
	C28.998024,77.221909 31.813580,79.946419 34.797333,82.971092 
	C29.424026,84.652695 26.717552,82.236458 26.131666,74.918381 
z"/>
<path fill="#EDEFF1" opacity="1.000000" stroke="none" 
	d="
M119.001099,57.988625 
	C121.515968,54.832859 124.376541,51.827957 127.549683,48.670235 
	C128.044479,54.225525 123.876579,58.935066 119.001099,57.988625 
z"/>
<path fill="#EDEFEF" opacity="1.000000" stroke="none" 
	d="
M27.814308,55.853550 
	C26.635595,57.639702 25.173960,59.232876 23.403549,60.927464 
	C22.652925,58.330601 22.211079,55.632328 21.769234,52.934052 
	C23.689951,53.842892 25.610670,54.751732 27.814308,55.853550 
z"/>
<path fill="#F3F5F5" opacity="1.000000" stroke="none" 
	d="
M72.797760,105.291367 
	C71.518623,105.266113 70.336830,104.826279 68.927002,104.171371 
	C68.644348,102.998260 68.589737,102.040215 68.535133,101.082176 
	C70.899704,101.172249 72.446503,100.562302 71.777763,97.666031 
	C71.737259,97.490623 73.368942,96.929115 75.840050,95.823700 
	C74.579781,99.697906 73.737434,102.287338 72.797760,105.291367 
z"/>
<path fill="#F3F5F5" opacity="1.000000" stroke="none" 
	d="
M99.138565,53.097000 
	C98.805702,54.975689 98.067726,56.811062 97.125931,58.885460 
	C95.534653,56.878498 94.147179,54.632515 92.214157,51.503422 
	C95.216217,52.217300 96.974838,52.635494 99.138565,53.097000 
z"/>
<path fill="#F3F5F5" opacity="1.000000" stroke="none" 
	d="
M97.775330,75.027084 
	C99.015884,76.424286 99.881325,77.894592 100.796944,79.687286 
	C99.105927,80.865173 97.364731,81.720665 94.206482,83.272400 
	C95.645882,79.589211 96.523048,77.344696 97.775330,75.027084 
z"/>
<path fill="#F3F5F5" opacity="1.000000" stroke="none" 
	d="
M113.272278,161.824646 
	C115.443001,163.443848 117.258354,165.130249 119.167130,167.114670 
	C115.221825,170.161148 114.837410,164.385605 112.011536,164.304962 
	C112.313324,163.500595 112.615112,162.696213 113.272278,161.824646 
z"/>
<path fill="#F3F2F4" opacity="1.000000" stroke="none" 
	d="
M60.084400,23.994205 
	C59.152222,25.396563 57.892288,26.604641 56.325027,27.925632 
	C55.604321,26.330799 55.190948,24.623056 54.777573,22.915314 
	C56.437263,23.210186 58.096951,23.505058 60.084400,23.994205 
z"/>
<path fill="#F3F5F5" opacity="1.000000" stroke="none" 
	d="
M20.120506,69.001381 
	C21.834352,70.105797 23.504070,71.645699 25.323280,73.492203 
	C24.264015,74.416634 23.055258,75.034454 21.846500,75.652275 
	C21.256458,73.580467 20.666418,71.508667 20.120506,69.001381 
z"/>
<path fill="#F3F5F5" opacity="1.000000" stroke="none" 
	d="
M160.552368,56.226501 
	C159.458755,55.729939 158.797729,55.167995 158.052322,54.351360 
	C159.679001,53.102299 161.390060,52.107925 163.101105,51.113556 
	C163.558334,51.662037 164.015549,52.210522 164.472778,52.759003 
	C163.310181,53.893044 162.147568,55.027081 160.552368,56.226501 
z"/>
<path fill="#F3F5F5" opacity="1.000000" stroke="none" 
	d="
M101.387375,149.884827 
	C103.321602,151.172668 104.886971,152.635086 106.559280,154.419235 
	C100.657097,155.164322 100.028275,154.643066 101.387375,149.884827 
z"/>
<path fill="#F3F5F5" opacity="1.000000" stroke="none" 
	d="
M104.698456,45.946243 
	C103.918823,47.311867 102.797646,48.620750 101.387268,50.084385 
	C100.697273,48.082813 100.296478,45.926487 99.628487,42.332634 
	C102.001984,44.118061 103.179443,45.003784 104.698456,45.946243 
z"/>
<path fill="#F3F5F5" opacity="1.000000" stroke="none" 
	d="
M36.109859,85.044304 
	C37.636616,85.896751 39.123459,87.175041 40.724319,88.759521 
	C36.727726,91.210709 35.629574,89.360619 36.109859,85.044304 
z"/>
<path fill="#F3F5F5" opacity="1.000000" stroke="none" 
	d="
M78.818283,158.225510 
	C78.992027,157.420807 79.268250,157.046768 79.728951,156.668610 
	C81.027596,158.446640 82.141762,160.228760 83.255920,162.010895 
	C82.638931,162.366486 82.021935,162.722092 81.404945,163.077698 
	C80.576881,161.603851 79.748825,160.130005 78.818283,158.225510 
z"/>
<path fill="#F3F5F5" opacity="1.000000" stroke="none" 
	d="
M169.996338,127.991135 
	C168.399399,127.463554 166.802460,126.935974 165.205521,126.408394 
	C165.234619,125.884918 165.263702,125.361450 165.292801,124.837975 
	C166.348099,124.489471 167.403397,124.140976 168.867401,124.215179 
	C169.516205,125.755630 169.756271,126.873383 169.996338,127.991135 
z"/>
<path fill="#F3F5F5" opacity="1.000000" stroke="none" 
	d="
M83.246056,85.973724 
	C83.631920,84.846458 84.392624,83.786819 85.411530,82.522964 
	C86.451759,83.431343 87.233803,84.543938 88.890488,86.900856 
	C86.288132,86.476395 84.954521,86.258873 83.246056,85.973724 
z"/>
<path fill="#F3F5F5" opacity="1.000000" stroke="none" 
	d="
M88.078629,104.010498 
	C89.465004,105.154526 90.808060,106.610672 92.213760,108.418716 
	C90.277817,107.845642 87.331604,107.824219 88.078629,104.010498 
z"/>
<path fill="#F3F5F5" opacity="1.000000" stroke="none" 
	d="
M87.877151,96.399384 
	C87.246399,97.462006 86.667480,98.150146 85.782928,98.757111 
	C85.318153,97.362526 85.159027,96.049133 84.999954,94.367867 
	C85.000000,94.000000 84.999695,94.000305 84.999695,94.000305 
	C86.622261,93.740303 88.491508,93.123405 87.877151,96.399384 
z"/>
<path fill="#F6F8F6" opacity="1.000000" stroke="none" 
	d="
M170.305252,127.954849 
	C169.756271,126.873383 169.516205,125.755630 169.137329,124.317436 
	C169.795898,123.822395 170.593231,123.647804 171.390579,123.473206 
	C171.131775,124.954994 170.872971,126.436775 170.305252,127.954849 
z"/>
<path fill="#F3F5F5" opacity="1.000000" stroke="none" 
	d="
M98.683517,123.081757 
	C98.448959,125.080093 97.830536,127.134758 97.038139,129.493134 
	C97.342667,127.577263 97.821167,125.357674 98.683517,123.081757 
z"/>
<path fill="#F3F5F5" opacity="1.000000" stroke="none" 
	d="
M19.835464,62.935036 
	C19.809090,63.879047 19.474653,64.693863 18.905367,65.758011 
	C18.176584,65.055344 17.682652,64.103325 17.188717,63.151314 
	C17.968279,63.036156 18.747839,62.920998 19.835464,62.935036 
z"/>
<path fill="#F3F5F5" opacity="1.000000" stroke="none" 
	d="
M12.500008,64.628922 
	C13.278044,65.146942 13.833398,65.914268 14.388752,66.681602 
	C13.809514,66.984375 13.230276,67.287155 12.651037,67.589928 
	C12.526467,66.686028 12.401896,65.782127 12.500008,64.628922 
z"/>
<path fill="#F3F5F5" opacity="1.000000" stroke="none" 
	d="
M85.916641,150.861023 
	C86.154831,150.015335 86.497009,149.462723 87.071449,148.811386 
	C87.860703,149.538391 88.417702,150.364120 88.987350,151.594925 
	C89.000000,152.000000 89.000603,151.999390 89.000603,151.999390 
	C88.007278,151.717636 87.013947,151.435883 85.916641,150.861023 
z"/>
<path fill="#F3F5F5" opacity="1.000000" stroke="none" 
	d="
M146.091949,108.912933 
	C145.181366,108.611931 144.548050,108.153130 143.819763,107.410492 
	C144.857666,106.599976 145.990555,106.073303 148.116745,105.084831 
	C147.279465,106.843376 146.824356,107.799255 146.091949,108.912933 
z"/>
<path fill="#F3F5F5" opacity="1.000000" stroke="none" 
	d="
M96.025269,66.070168 
	C96.548943,67.027588 96.762825,68.168015 96.917442,69.657639 
	C96.477280,68.755608 96.096382,67.504395 96.025269,66.070168 
z"/>
<path fill="#F3F5F5" opacity="1.000000" stroke="none" 
	d="
M83.504044,36.620136 
	C82.711090,37.016476 82.052467,37.118130 81.393845,37.219780 
	C81.463226,36.650982 81.532608,36.082184 81.601990,35.513386 
	C82.280792,35.784073 82.959595,36.054764 83.504044,36.620136 
z"/>
<path fill="#EDEFF1" opacity="1.000000" stroke="none" 
	d="
M129.860474,46.949722 
	C130.067596,46.200375 130.547806,45.592335 131.312775,44.904732 
	C131.794159,45.720364 131.990799,46.615555 132.187439,47.510746 
	C131.502808,47.370842 130.818192,47.230938 129.860474,46.949722 
z"/>
<path fill="#F3F5F5" opacity="1.000000" stroke="none" 
	d="
M124.918213,174.090424 
	C125.714340,174.101715 126.246071,174.279510 126.890244,174.724091 
	C126.451202,175.499237 125.899712,176.007568 125.348236,176.515900 
	C125.116768,175.762909 124.885292,175.009918 124.918213,174.090424 
z"/>
<path fill="#F3F5F5" opacity="1.000000" stroke="none" 
	d="
M80.820969,88.428558 
	C81.249413,87.385765 81.811180,86.693016 82.640472,85.934769 
	C82.249031,86.833847 84.717888,89.898872 80.820969,88.428558 
z"/>
<path fill="#F3F5F5" opacity="1.000000" stroke="none" 
	d="
M55.004902,102.444427 
	C54.578327,102.959740 54.147320,103.139305 53.367329,103.262833 
	C52.922291,102.266098 52.826237,101.325409 52.730183,100.384712 
	C52.999043,100.232964 53.267906,100.081207 53.536766,99.929459 
	C54.024666,100.655869 54.512569,101.382278 55.004902,102.444427 
z"/>
<path fill="#F3F5F5" opacity="1.000000" stroke="none" 
	d="
M41.362747,109.975815 
	C41.058491,110.728951 40.407505,111.476379 39.467751,112.319824 
	C38.736656,111.770332 38.294334,111.124809 37.665981,110.207794 
	C38.906197,110.119797 39.961109,110.044945 41.362747,109.975815 
z"/>
<path fill="#F3F5F5" opacity="1.000000" stroke="none" 
	d="
M46.063843,105.843460 
	C46.058800,106.627792 45.865959,106.865868 45.258816,107.001343 
	C45.123207,105.724281 45.229176,104.409897 45.667572,103.047760 
	C46.000000,103.000000 45.998322,102.998314 45.998322,102.998314 
	C46.015141,103.811249 46.031960,104.624176 46.063843,105.843460 
z"/>
<path fill="#F3F5F5" opacity="1.000000" stroke="none" 
	d="
M137.924484,95.770599 
	C138.313354,94.988480 138.854996,94.509193 139.699249,94.017632 
	C139.360336,94.694717 138.718796,95.384079 137.924484,95.770599 
z"/>
<path fill="#F3F5F5" opacity="1.000000" stroke="none" 
	d="
M96.358353,133.907257 
	C96.769081,134.411728 96.829315,134.949692 96.811707,135.750366 
	C95.994301,135.637466 95.254753,135.261856 94.515205,134.886230 
	C95.012756,134.571075 95.510307,134.255920 96.358353,133.907257 
z"/>
<path fill="#F3F5F5" opacity="1.000000" stroke="none" 
	d="
M103.335800,115.298035 
	C103.481735,115.900093 103.238602,116.392700 102.740761,117.012329 
	C101.857437,116.774849 101.228813,116.410347 100.600182,116.045853 
	C101.382362,115.760094 102.164543,115.474335 103.335800,115.298035 
z"/>
<path fill="#F3F5F5" opacity="1.000000" stroke="none" 
	d="
M152.417007,115.151588 
	C151.484177,114.847717 150.920685,114.394913 150.270081,113.677460 
	C151.050766,113.942757 151.918549,114.472710 152.417007,115.151588 
z"/>
<path fill="#F3F5F5" opacity="1.000000" stroke="none" 
	d="
M155.303909,109.522827 
	C154.552322,109.528595 154.019043,109.324211 153.485779,109.119835 
	C153.620010,108.846588 153.754257,108.573341 153.888504,108.300095 
	C154.433075,108.637619 154.977661,108.975143 155.303909,109.522827 
z"/>
<path fill="#F3F5F5" opacity="1.000000" stroke="none" 
	d="
M86.162918,100.942581 
	C87.007248,101.349281 87.552536,101.905762 87.957253,102.737411 
	C87.165741,102.372513 86.514809,101.732437 86.162918,100.942581 
z"/>
<path fill="#F3F5F5" opacity="1.000000" stroke="none" 
	d="
M46.000786,103.000854 
	C46.543079,102.392372 47.084587,101.783051 47.626099,101.173729 
	C47.922291,101.454666 48.218483,101.735603 48.514671,102.016541 
	C47.904087,102.340248 47.293503,102.663956 46.340622,102.992996 
	C45.998322,102.998314 46.000000,103.000000 46.000786,103.000854 
z"/>
<path fill="#F3F5F5" opacity="1.000000" stroke="none" 
	d="
M100.866043,119.011078 
	C100.984230,119.578903 100.786148,120.142044 100.327454,120.862930 
	C99.635284,120.467934 99.203743,119.915176 98.772194,119.362427 
	C99.364723,119.243744 99.957260,119.125061 100.866043,119.011078 
z"/>
<path fill="#F3F5F5" opacity="1.000000" stroke="none" 
	d="
M145.388580,97.463417 
	C144.940216,97.347755 144.665390,97.065323 144.411850,96.764923 
	C144.405319,96.757202 144.632034,96.552597 144.749969,96.439804 
	C145.021606,96.724625 145.293259,97.009453 145.388580,97.463417 
z"/>
<path fill="#F3F5F5" opacity="1.000000" stroke="none" 
	d="
M85.284019,91.965363 
	C85.302597,91.491348 85.605194,90.982697 85.907791,90.474045 
	C86.116791,90.655739 86.325790,90.837425 86.534790,91.019119 
	C86.212540,91.322983 85.890289,91.626854 85.284019,91.965363 
z"/>
<path fill="#F3F5F5" opacity="1.000000" stroke="none" 
	d="
M22.463280,78.610413 
	C22.347794,79.057755 22.063732,79.329185 21.779673,79.600609 
	C21.667299,79.482994 21.554928,79.365387 21.442554,79.247772 
	C21.726604,78.976677 22.010654,78.705589 22.463280,78.610413 
z"/>
<path fill="#F3F5F5" opacity="1.000000" stroke="none" 
	d="
M107.537506,166.388565 
	C107.652908,165.941803 107.934341,165.667984 108.233627,165.415314 
	C108.241264,165.408859 108.444923,165.634598 108.557175,165.752045 
	C108.273407,166.022781 107.989639,166.293518 107.537506,166.388565 
z"/>
<path fill="#F3F5F5" opacity="1.000000" stroke="none" 
	d="
M129.949829,101.964539 
	C129.552277,102.389969 129.133102,102.485199 128.414474,102.439804 
	C128.303665,101.710854 128.492294,101.122520 128.680939,100.534195 
	C129.096695,100.900909 129.512436,101.267624 129.949829,101.964539 
z"/>
<path fill="#F3F5F5" opacity="1.000000" stroke="none" 
	d="
M88.999695,152.000305 
	C89.510155,152.302887 90.020920,152.605164 90.531677,152.907455 
	C90.349648,153.117416 90.167618,153.327362 89.985580,153.537308 
	C89.680229,153.214462 89.374878,152.891602 89.035065,152.284073 
	C89.000603,151.999390 89.000000,152.000000 88.999695,152.000305 
z"/>
<path fill="#F3F5F5" opacity="1.000000" stroke="none" 
	d="
M134.492279,100.930649 
	C134.735352,100.569855 135.240067,100.250854 135.744797,99.931862 
	C135.849380,100.153984 135.953964,100.376106 136.058548,100.598236 
	C135.623672,100.722977 135.188797,100.847710 134.492279,100.930649 
z"/>
<path fill="#F3F5F5" opacity="1.000000" stroke="none" 
	d="
M84.701813,92.038956 
	C84.999763,92.444511 84.999519,92.889015 84.999489,93.666916 
	C84.999695,94.000305 85.000000,94.000000 85.000153,93.999847 
	C84.482964,93.766266 83.965622,93.532845 83.448288,93.299416 
	C83.766731,92.892250 84.085175,92.485077 84.701813,92.038956 
z"/>
<path fill="#F3F5F5" opacity="1.000000" stroke="none" 
	d="
M101.532700,89.392387 
	C101.648743,88.942802 101.933929,88.670036 102.219116,88.397278 
	C102.331955,88.515320 102.444794,88.633362 102.557632,88.751404 
	C102.272369,89.024010 101.987099,89.296616 101.532700,89.392387 
z"/>
<path fill="#F3F5F5" opacity="1.000000" stroke="none" 
	d="
M91.512894,62.962170 
	C91.154282,62.563290 91.074081,62.116074 91.057236,61.331558 
	C91.344162,61.634117 91.567734,62.273975 91.512894,62.962170 
z"/>
<path fill="#F3F5F5" opacity="1.000000" stroke="none" 
	d="
M94.639153,62.102196 
	C94.363976,61.831249 94.250740,61.428722 94.194290,61.018383 
	C94.184563,60.947697 94.416237,60.843800 94.536407,60.755241 
	C94.631035,61.159485 94.725662,61.563732 94.639153,62.102196 
z"/>
<path fill="#F3F5F5" opacity="1.000000" stroke="none" 
	d="
M95.810272,90.862900 
	C95.219727,91.076050 94.484550,91.014191 93.378922,90.936943 
	C93.894188,90.810333 94.779907,90.699112 95.810272,90.862900 
z"/>
<path fill="#F3F5F5" opacity="1.000000" stroke="none" 
	d="
M135.659241,98.205086 
	C136.033524,98.045006 136.354980,98.092453 136.676453,98.139900 
	C136.319778,98.230804 135.963120,98.321709 135.659241,98.205086 
z"/>
<path fill="#F3F5F5" opacity="1.000000" stroke="none" 
	d="
M151.243713,111.017227 
	C151.410248,110.907143 151.578552,110.961220 151.746841,111.015289 
	C151.579727,111.070648 151.412598,111.126015 151.243713,111.017227 
z"/>
<path fill="#F3F5F5" opacity="1.000000" stroke="none" 
	d="
M159.002136,80.997849 
	C159.433945,81.119469 159.863632,81.243202 160.293304,81.366936 
	C159.943527,81.382309 159.593765,81.397682 159.120667,81.208443 
	C158.997330,81.003830 159.000000,80.999962 159.002136,80.997849 
z"/>
<path fill="#F3F5F5" opacity="1.000000" stroke="none" 
	d="
M89.795555,76.724083 
	C89.763672,76.410057 89.825241,76.425240 89.841042,76.398254 
	C90.041756,76.874458 90.226669,77.377647 90.411583,77.880829 
	C90.216866,77.599922 90.022148,77.319016 89.795555,76.724083 
z"/>
<path fill="#F3F5F5" opacity="1.000000" stroke="none" 
	d="
M108.243263,163.005356 
	C108.409409,162.895523 108.577042,162.949432 108.744667,163.003326 
	C108.578026,163.058578 108.411385,163.113831 108.243263,163.005356 
z"/>
<path fill="#F3F5F5" opacity="1.000000" stroke="none" 
	d="
M95.258194,114.643990 
	C95.008514,114.629234 94.872414,114.495590 94.736305,114.361954 
	C94.948120,114.416336 95.159943,114.470718 95.258194,114.643990 
z"/>
<path fill="#F3F5F5" opacity="1.000000" stroke="none" 
	d="
M92.181229,108.988594 
	C92.234962,108.729309 92.684944,108.783546 92.845520,108.943497 
	C92.852043,109.454414 92.697983,109.805382 92.543930,110.156349 
	C92.405121,109.853523 92.266312,109.550705 92.181229,108.988594 
z"/>
<path fill="#F3F5F5" opacity="1.000000" stroke="none" 
	d="
M94.467316,123.449326 
	C94.523727,123.415367 94.410896,123.483292 94.467316,123.449326 
z"/>
<path fill="#F3F5F5" opacity="1.000000" stroke="none" 
	d="
M92.532608,122.551605 
	C92.477104,122.584999 92.588120,122.518204 92.532608,122.551605 
z"/>
<path fill="#F3F5F5" opacity="1.000000" stroke="none" 
	d="
M97.307487,92.526337 
	C97.144096,92.728722 96.668961,92.651352 96.195549,92.283600 
	C96.463432,92.077660 96.729591,92.162117 97.307487,92.526337 
z"/>
<path fill="#F3F5F5" opacity="1.000000" stroke="none" 
	d="
M138.534180,101.550369 
	C138.478531,101.583496 138.589844,101.517235 138.534180,101.550369 
z"/>
<path fill="#F3F5F5" opacity="1.000000" stroke="none" 
	d="
M77.550507,37.466740 
	C77.584229,37.522926 77.516777,37.410553 77.550507,37.466740 
z"/>
<path fill="#F3F5F5" opacity="1.000000" stroke="none" 
	d="
M68.448318,98.533760 
	C68.413963,98.477089 68.482674,98.590431 68.448318,98.533760 
z"/>
<path fill="#F3F5F5" opacity="1.000000" stroke="none" 
	d="
M18.466175,70.449661 
	C18.521860,70.416489 18.410492,70.482834 18.466175,70.449661 
z"/>
<path fill="#F3F5F5" opacity="1.000000" stroke="none" 
	d="
M16.550335,68.468262 
	C16.583368,68.523895 16.517300,68.412621 16.550335,68.468262 
z"/>
</svg>